<svg width="16" height="16" viewBox="0 0 16 16" fill="none" xmlns="http://www.w3.org/2000/svg">
<path fill="white" d="M8 0C3.58 0 0 3.58 0 8C0 11.54 2.29 14.53 5.47 15.59C5.87 15.66 6.02 15.42 6.02 15.21C6.02 15.02 6.01 14.39 6.01 13.62C4 13.98 3.48 12.78 3.32 12.27C3.23 12.01 2.84 11.2 2.5 11.01C2.22 10.86 1.82 10.49 2.49 10.48C3.12 10.47 3.57 11.06 3.72 11.31C4.44 12.52 5.59 12.17 6.05 11.96C6.12 11.44 6.33 11.09 6.56 10.89C4.78 10.69 2.92 10 2.92 6.95C2.92 6.08 3.23 5.36 3.74 4.79C3.66 4.59 3.38 3.74 3.82 2.63C3.82 2.63 4.49 2.42 6.02 3.45C6.66 3.27 7.34 3.18 8.02 3.18C8.7 3.18 9.38 3.27 10.02 3.45C11.55 2.41 12.22 2.63 12.22 2.63C12.66 3.74 12.38 4.59 12.3 4.79C12.81 5.36 13.12 6.07 13.12 6.95C13.12 10.01 11.25 10.69 9.47 10.89C9.76 11.14 10.01 11.62 10.01 12.37C10.01 13.44 10 14.9 10 15.21C10 15.42 10.15 15.67 10.55 15.59C13.71 14.53 16 11.53 16 8C16 3.58 12.42 0 8 0Z"/>
</svg>